<svg width="128" height="128" viewBox="0 0 128 128" fill="none" xmlns="http://www.w3.org/2000/svg">
<path fill-rule="evenodd" clip-rule="evenodd" d="M64.543 14.7578C72.89 20.7496 79.5512 24.5332 86.0137 27.2451C92.185 29.8349 98.0628 31.3954 104.78 32.999V67.9736C101.85 80.1738 98.3696 88.9564 92.4609 95.9912C89.7111 99.2651 86.3647 102.244 82.1602 105.024L72.3291 84.0781C71.8927 83.1484 70.8252 82.701 69.8594 83.043L64.0918 85.0859C63.6345 85.2478 63.1336 85.237 62.6836 85.0557L57.9463 83.1465C56.964 82.7507 55.8444 83.1934 55.3955 84.1553L46.0801 104.117C42.2365 101.474 39.084 98.6739 36.4277 95.6318C30.2779 88.5886 26.4839 79.9036 23.2197 67.9131L23.2207 33.1406C40.3292 29.6675 50.303 24.3528 64.543 14.7578ZM64.125 62.4209C59.4415 62.4209 55.6446 66.2298 55.6445 70.9287C55.6445 75.6276 59.4414 79.4365 64.125 79.4365C68.8084 79.4364 72.6055 75.6275 72.6055 70.9287C72.6054 66.2299 68.8084 62.4211 64.125 62.4209ZM63.877 47.2676C57.8455 47.2641 53.5358 49.7492 50.7676 52.2256C49.3926 53.4557 48.3936 54.6864 47.7324 55.6172C47.4009 56.084 47.1503 56.4802 46.9785 56.7695C46.8927 56.914 46.8263 57.0324 46.7783 57.1201C46.7543 57.164 46.7345 57.2004 46.7197 57.2285C46.7124 57.2424 46.7063 57.2548 46.7012 57.2646L46.6895 57.2881C46.0653 58.5201 46.5543 60.0271 47.7822 60.6533C49.0095 61.279 50.51 60.7881 51.1348 59.5576L51.1309 59.5654C51.1334 59.5605 51.14 59.5483 51.1504 59.5293C51.1717 59.4903 51.2101 59.423 51.2646 59.3311C51.374 59.1469 51.5492 58.8661 51.7939 58.5215C52.2858 57.8291 53.0444 56.8945 54.0879 55.9609C56.1571 54.1099 59.3292 52.2698 63.874 52.2725C68.4212 52.2751 71.5962 54.1163 73.667 55.9668C74.711 56.8998 75.4698 57.8329 75.9619 58.5244C76.2069 58.8686 76.3827 59.1491 76.4922 59.333C76.5466 59.4244 76.5841 59.4923 76.6055 59.5312C76.6158 59.5501 76.6215 59.5597 76.624 59.5645L76.6816 59.6719C77.3394 60.819 78.7858 61.2595 79.9746 60.6523C81.2019 60.025 81.6896 58.5156 81.0645 57.2842L81.0605 57.2764L81.0527 57.2627C81.0476 57.2528 81.0415 57.2404 81.0342 57.2266C81.0194 57.1985 81.0005 57.1618 80.9766 57.1182C80.9284 57.0304 80.8614 56.9121 80.7754 56.7676C80.6034 56.4787 80.3532 56.0834 80.0215 55.6172C79.3599 54.6875 78.3598 53.4586 76.9844 52.2295C74.2157 49.7555 69.9066 47.2711 63.877 47.2676ZM64.4121 33.3936C55.403 33.2562 48.8828 36.4549 44.6211 39.7217C42.5002 41.3475 40.9429 42.9863 39.9072 44.2305C39.3887 44.8534 38.9984 45.3808 38.7314 45.7627C38.598 45.9537 38.4948 46.1088 38.4219 46.2217C38.3856 46.2779 38.3565 46.3238 38.335 46.3584C38.3242 46.3757 38.3147 46.3907 38.3076 46.4023C38.3043 46.4079 38.3014 46.4128 38.2988 46.417C38.2975 46.4192 38.2931 46.4269 38.292 46.4287C37.5827 47.6133 37.9649 49.1505 39.1455 49.8623C40.3262 50.574 41.8579 50.1903 42.5674 49.0059C42.5743 48.9948 42.5891 48.9728 42.6094 48.9414C42.6506 48.8776 42.719 48.7737 42.8154 48.6357C43.0093 48.3582 43.3157 47.9437 43.7363 47.4385C44.579 46.4262 45.8735 45.0606 47.6494 43.6992C51.182 40.9913 56.6352 38.28 64.3369 38.3975C72.0817 38.5157 77.5011 41.2427 80.9795 43.8945C82.728 45.2276 83.9933 46.5482 84.8115 47.5205C85.2198 48.0057 85.5148 48.402 85.7012 48.666C85.7941 48.7976 85.8604 48.8962 85.8994 48.9561C85.9181 48.9847 85.9311 49.0045 85.9375 49.0146C86.6516 50.1956 88.1846 50.5732 89.3623 49.8574C90.5402 49.1413 90.9148 47.5999 90.2012 46.418L90.1973 46.4111L90.1963 46.4092C90.1937 46.405 90.1909 46.4 90.1875 46.3945C90.1804 46.383 90.1708 46.3685 90.1602 46.3516C90.1389 46.3176 90.1098 46.2724 90.0742 46.2178C90.0028 46.1081 89.9027 45.9579 89.7725 45.7734C89.5117 45.404 89.1303 44.8948 88.623 44.292C87.6096 43.0876 86.0843 41.4997 83.998 39.9092C79.8068 36.7138 73.3783 33.5304 64.4121 33.3936Z" fill="#FC610F"/>
<path fill-rule="evenodd" clip-rule="evenodd" d="M104 0C117.255 0 128 10.7452 128 24V104C128 117.255 117.255 128 104 128H24C10.7452 128 0 117.255 0 104V24C0 10.7452 10.7452 0 24 0H104ZM67.3965 6.94922C65.779 5.85783 63.6434 5.79931 61.9609 6.84961L61.7949 6.95898C46.6856 17.2476 37.4866 22.2633 20.1621 25.584L19.3311 25.7412C17.0082 26.1729 15.2395 28.2078 15.2393 30.666L15.2383 68.3174C15.2383 68.7637 15.2976 69.2049 15.4111 69.626C18.8372 82.3268 23.0544 92.4683 30.4248 100.909C37.7952 109.35 48.011 115.741 62.8086 121.561C63.9519 122.01 65.2315 122.02 66.3809 121.589C81.266 116.011 91.4018 109.679 98.5645 101.151C105.713 92.6403 109.569 82.3291 112.625 69.4961C112.715 69.12 112.762 68.7281 112.762 68.332V30.623C112.762 28.2748 111.139 26.2737 108.906 25.749C101.198 23.9374 95.2822 22.4544 89.0938 19.8574C83.1252 17.3527 76.7715 13.7522 68.376 7.65918L67.5566 7.06152L67.3965 6.94922Z" fill="#FC610F"/>
</svg>
