<svg width="128" height="152" viewBox="0 0 128 152" fill="none" xmlns="http://www.w3.org/2000/svg">
<path d="M75.2941 85.0941C75.2941 91.2614 70.3109 96.261 64.1637 96.261C58.0165 96.261 53.0332 91.2614 53.0332 85.0941C53.0332 78.9267 58.0165 73.9271 64.1637 73.9271C70.3109 73.9271 75.2941 78.9267 75.2941 85.0941Z" fill="#FC610F"/>
<path d="M63.8388 54.0386C71.7528 54.0432 77.4083 57.3044 81.0421 60.5516C82.8474 62.1647 84.1604 63.7768 85.0287 64.997C85.4642 65.609 85.7915 66.1285 86.0172 66.5077C86.1301 66.6974 86.2181 66.8525 86.2812 66.9677C86.3128 67.0253 86.3385 67.0732 86.358 67.1101C86.3677 67.1285 86.3755 67.1445 86.3823 67.1575C86.3856 67.164 86.3892 67.1698 86.3919 67.1749C86.3908 67.1727 86.3931 67.1773 86.3919 67.1749L86.397 67.1851C86.397 67.1851 86.3584 67.2086 83.4814 68.6791L86.397 67.1851C87.2177 68.8014 86.5783 70.7822 84.9673 71.6056C83.4067 72.4031 81.5077 71.825 80.6444 70.3188L80.569 70.1789C80.5658 70.1729 80.5592 70.1607 80.5453 70.1353C80.5173 70.0843 80.4674 69.9954 80.3957 69.8749C80.252 69.6335 80.0216 69.2657 79.7 68.8139C79.0541 67.9061 78.0584 66.6811 76.6879 65.4563C73.97 63.0276 69.8031 60.6109 63.835 60.6074C57.8695 60.6038 53.7062 63.0197 50.9903 65.4493C49.6207 66.6745 48.6256 67.9006 47.9801 68.8094C47.6588 69.2618 47.428 69.6299 47.2844 69.8717C47.2128 69.9923 47.1628 70.081 47.1348 70.1321C47.1208 70.1577 47.1124 70.1742 47.1092 70.1802L47.1144 70.17C46.2944 71.7851 44.325 72.4283 42.7141 71.6069C41.1024 70.785 40.4602 68.8079 41.2793 67.1909L44.0504 68.6041C41.2791 67.1908 41.2793 67.1909 41.2793 67.1909C41.2804 67.1888 41.2845 67.1799 41.2857 67.1774C41.2883 67.1724 41.2913 67.1666 41.2947 67.1601C41.3014 67.1471 41.3099 67.1311 41.3196 67.1126C41.339 67.0757 41.3648 67.0279 41.3963 66.9702C41.4594 66.855 41.547 66.6995 41.6598 66.5097C41.8853 66.1299 42.213 65.6098 42.6483 64.997C43.516 63.7754 44.8281 62.161 46.6329 60.5464C50.2662 57.2961 55.9223 54.0339 63.8388 54.0386Z" fill="#FC610F"/>
<path d="M64.5414 35.8286C76.3096 36.0082 84.7463 40.187 90.2473 44.3809C92.9856 46.4685 94.9874 48.5522 96.3176 50.1331C96.9835 50.9244 97.4836 51.5931 97.8259 52.078C97.997 52.3204 98.1292 52.5172 98.223 52.6611C98.2699 52.7331 98.3076 52.7923 98.3355 52.8369C98.3495 52.8591 98.3614 52.8776 98.3707 52.8927C98.3753 52.9002 98.3794 52.9069 98.3829 52.9126C98.3814 52.9102 98.3846 52.9155 98.3829 52.9126L98.3892 52.9241C98.3892 52.9241 98.3912 52.927 95.5913 54.6286L98.3892 52.9241C99.3259 54.4756 98.8339 56.4985 97.2876 57.4383C95.7418 58.3777 93.7299 57.8823 92.7927 56.3324C92.7844 56.3191 92.7675 56.2933 92.7428 56.2554C92.6917 56.1768 92.6053 56.0473 92.4832 55.8743C92.2386 55.5278 91.8512 55.0072 91.3151 54.3701C90.2412 53.0939 88.5806 51.3612 86.2857 49.6115C81.7202 46.1309 74.607 42.5519 64.4417 42.3968C54.3332 42.2425 47.1767 45.8008 42.5401 49.3549C40.2089 51.1419 38.5094 52.9343 37.4033 54.2629C36.8512 54.9261 36.45 55.4697 36.1955 55.8339C36.0685 56.0157 35.9785 56.1523 35.9244 56.2361C35.8978 56.2774 35.8791 56.3056 35.8701 56.3202C34.9388 57.875 32.9281 58.3783 31.3784 57.444C29.8288 56.5098 29.3272 54.4924 30.2582 52.9376L33.0632 54.6286C30.3115 52.9697 30.2583 52.9397 30.2582 52.9376C30.2596 52.9352 30.2654 52.9257 30.2671 52.9229C30.2706 52.9172 30.2747 52.9105 30.2793 52.903C30.2886 52.8877 30.3003 52.8686 30.3144 52.8459C30.3428 52.8003 30.381 52.7398 30.4289 52.6656C30.5246 52.5174 30.6597 52.314 30.8349 52.0633C31.1852 51.562 31.6971 50.8698 32.3777 50.0522C33.7371 48.4193 35.7819 46.2691 38.5657 44.1352C44.1593 39.8475 52.7166 35.6482 64.5414 35.8286Z" fill="#FC610F"/>
<path fill-rule="evenodd" clip-rule="evenodd" d="M127.82 83.2142C127.938 82.7204 128 82.2062 128 81.6862V32.1932C128 29.1108 125.869 26.4843 122.939 25.7956C112.822 23.418 105.058 21.4717 96.9354 18.0632C89.1016 14.7758 80.7621 10.0502 69.743 2.05306L68.6682 1.26853L68.4578 1.12098C66.3349 -0.311461 63.5324 -0.388402 61.3242 0.990122L61.1055 1.13317C41.2743 14.6371 29.2011 21.2211 6.46228 25.5795L5.37148 25.7854C2.32275 26.3519 0.00223812 29.0226 0.00191816 32.249L8.94943e-10 81.6663C-9.67575e-06 82.2521 0.0785461 82.8308 0.227621 83.3835C4.7243 100.054 10.2585 113.364 19.9322 124.443C29.6059 135.522 43.014 143.91 62.4361 151.548C63.9368 152.138 65.616 152.151 67.1247 151.585C86.6615 144.265 99.9648 135.954 109.366 124.761C118.748 113.59 123.809 100.058 127.82 83.2142ZM101.355 117.988C97.7457 122.285 93.3532 126.194 87.8347 129.844L74.9314 102.352C74.3587 101.132 72.958 100.545 71.6902 100.994L64.1209 103.675C63.5205 103.888 62.8636 103.874 62.2728 103.635L56.055 101.13C54.7656 100.61 53.2962 101.191 52.707 102.453L40.4799 128.653C35.4353 125.184 31.2983 121.51 27.812 117.517C19.7401 108.272 14.76 96.8737 10.4757 81.1358L10.477 35.4968C32.9319 30.9383 46.0222 23.9628 64.7123 11.3693C75.668 19.2338 84.411 24.1997 92.8932 27.7592C100.993 31.1583 108.708 33.206 117.524 35.3108V81.2153C113.678 97.2281 109.11 108.755 101.355 117.988Z" fill="#FC610F"/>
</svg>
